<?xml version="1.0"?><svg width="593.11536" height="193.49118" xmlns="http://www.w3.org/2000/svg">

 <g>
  <title>Layer 1</title>
  <g id="layer1">
   <path fill="#ffffff" fill-rule="nonzero" stroke="#000000" stroke-width="4" stroke-linecap="round" stroke-linejoin="round" stroke-miterlimit="4" id="path3247" d="m591.115356,122.742859l-0.200256,40.203613l-382.562088,28.544189l-206.353035,-129.560944l0.200249,-40.203552l206.353043,126.025421l382.562088,-25.008728z"/>
   <path fill="#ffffff" fill-rule="nonzero" stroke="#000000" stroke-width="4" stroke-linecap="round" stroke-linejoin="round" stroke-miterlimit="4" id="path3245" d="m2.200226,21.726166l332.674408,-19.726654l256.240723,120.743347l-382.562088,25.008728l-206.353043,-126.025421z"/>
   <path fill="#ffffff" fill-rule="nonzero" stroke="#000000" stroke-width="4" stroke-linecap="round" stroke-linejoin="round" stroke-miterlimit="4" id="path3243" d="m591.115356,122.742859l-0.200256,40.203613l-382.562088,28.544189l0.200256,-43.739075l382.562088,-25.008728z"/>
   <path fill="#ffffff" fill-rule="nonzero" stroke="#000000" stroke-width="4" stroke-linecap="round" stroke-linejoin="round" stroke-miterlimit="4" id="path3239" d="m60.004227,34.137604l27.498657,15.500122l243.375046,-17.784058l149.712891,72.080841l26.287659,-1.718445l-175.609497,-87.326202l-271.264755,19.247742z"/>
   <path fill="#ffffff" fill-rule="nonzero" stroke="#000000" stroke-width="4" stroke-linecap="round" stroke-linejoin="round" stroke-miterlimit="4" id="path3222" d="m330.87793,31.853668l149.712891,72.080841l26.287659,-1.718445l-175.609497,-87.326202l-0.391052,16.963806z"/>
   <path fill="#ffffff" fill-rule="nonzero" stroke="#000000" stroke-width="4" stroke-linecap="round" stroke-linejoin="round" stroke-miterlimit="4" id="path3253" d="m330.864319,31.846008c-22.367798,1.643127 -44.646362,-7.563019 -67.741699,-3.734802c-23.095322,3.828186 -29.308395,10.835175 -57.246231,12.876648c-28.435226,2.07785 -73.178329,-12.004059 -118.355835,8.639404l128.40625,72.40625l290.937515,-19.8125l-26.28125,1.71875c0,0 -72.013,-50.609985 -97.425354,-55.023834c-25.202148,-4.377319 -52.293396,-17.069916 -52.293396,-17.069916z"/>
   <path fill="#ffffff" fill-opacity="0.098039" fill-rule="evenodd" stroke-width="1px" id="path3256" d="m283.348022,70.628876c8.25,3.5 35,-6.5 48,-6.5c13,0 21,-10 8,-15.5c-13,-5.5 -36,-7 -45.5,2.5c-9.5,9.5 -18.75,16 -10.5,19.5z"/>
   <path fill="#ffffff" fill-opacity="0.098039" fill-rule="evenodd" stroke-width="1px" id="path3258" d="m222.977859,73.108582c-20.933136,3.418945 -25.159729,18.657043 -36.632965,16.714905c-11.473236,-1.942139 -29.156845,-14.435608 -20.185501,-18.614349c8.971329,-4.178741 30.990128,3.444916 43.361465,-7.597687c12.371307,-11.042603 34.390106,6.078156 13.457001,9.497131z"/>
   <path fill="#ffffff" fill-opacity="0.098039" fill-rule="evenodd" stroke-width="1px" id="path3260" d="m405.395569,75.877258c-11.616211,0.074585 -22.1875,1.59375 -26.78125,5.75c-10.5,9.5 -19,24 -40,22.5c-21,-1.5 -44.5,-10 -44,5c0.095215,2.85791 2.85083,5.18811 7.28125,7.0625l113.46875,-7.75c24.469116,-7.004028 50.531067,-14.5755 47.875,-16.28125c-0.045593,-0.029297 -0.080322,-0.064087 -0.125,-0.09375c-0.011353,-0.007507 -0.019897,-0.023682 -0.03125,-0.03125c-5.330383,-3.536438 -11.59552,-7.604248 -18.21875,-11.78125c-0.008789,-0.002441 -0.022461,0.002441 -0.03125,0c-7.876587,-2.169678 -24.519043,-4.470795 -39.4375,-4.375z"/>
   <g id="g3305">
    <path fill="#ffffff" fill-opacity="0.392157" fill-rule="evenodd" stroke-width="1px" id="path3314" d="m248.739319,72.458191c11,4.5 25.25,3.5 27,-1.25c1.75,-4.75 16.25,-2 16.25,-2l3.5,-7.75c0,0 -16.75,3.75 -21,-0.5c-4.25,-4.25 -19.75,-1.75 -19.75,-1.75l-6,13.25z"/>
    <path fill="#ffffff" fill-rule="evenodd" stroke="#000000" stroke-width="4" stroke-linejoin="round" stroke-miterlimit="4" id="path3286" d="m270.700806,23.497311c-5.249664,-0.542175 -13.011169,18.07251 -16.035233,21.668427c-2.796478,3.325409 -7.180817,-7.888397 -16.583282,2.944275c-9.634216,11.09967 -6.486542,13.686218 1.480042,20.940006c3.346313,3.044739 17.658585,3.556274 21.482803,-1.00885c9.793732,-11.283512 -2.115692,-13.724003 0.582458,-16.832584c2.699097,-3.10965 19.416077,-13.985687 19.197601,-18.923553c-0.218475,-4.937897 -4.874756,-8.245575 -10.12439,-8.78772z"/>
    <path fill="#ffffff" fill-opacity="0.392157" fill-rule="evenodd" stroke-width="1px" id="path3292" d="m245.84111,47.487209c-3.358765,0.795502 -10.076263,9.722717 -9.722717,11.844055c0.353546,2.121277 5.925415,-1.018555 7.954956,-3.889099c2.11203,-2.987213 5.126526,-8.750458 1.767761,-7.954956z"/>
    <path fill="#ffffff" fill-opacity="0.392157" fill-rule="evenodd" stroke-width="1px" id="path3294" d="m261.474915,46.694454c1.233765,0.704498 15.764252,-13.485504 15.909912,-14.849243c0.146423,-1.371338 -0.497101,-2.525879 -1.901672,-2.20343c-1.286102,0.295288 -15.191925,16.37677 -14.00824,17.052673z"/>
   </g>
   <g id="g3300">
    <path fill="#ffffff" fill-opacity="0.392157" fill-rule="evenodd" stroke-width="1px" id="path3312" d="m290.307739,97.38533c9,-2.75 20,-4.25 26.75,0.25c5.538818,3.692505 17.355042,0.184998 17.5,-9.25c0.108887,-7.457397 -14.5,-9.25 -14.5,-9.25l-29.75,18.25z"/>
    <path fill="#ffffff" fill-rule="nonzero" stroke="#000000" stroke-width="4.909468" stroke-linecap="round" stroke-linejoin="round" stroke-miterlimit="4" id="path3271" d="m286.808411,58.32909c-1.105957,4.127533 -3.119446,24.81625 -4.008728,28.135036c-0.889282,3.318726 3.798401,12.088806 10.977844,6.812561c8.606079,-6.324829 21.56604,-1.89325 22.455322,-5.212036c0.889282,-3.318726 7.238342,-15.487915 8.344299,-19.615479c1.106018,-4.127563 -6.456604,-9.744381 -16.880798,-12.537533c-10.424133,-2.793152 -19.781982,-1.710144 -20.887939,2.41745z"/>
    <path fill="#ffffff" fill-rule="nonzero" stroke="#000000" stroke-width="4.672159" stroke-linecap="round" stroke-linejoin="round" stroke-miterlimit="4" id="path3267" d="0"/>
    <path fill="#ffffff" fill-opacity="0.392157" fill-rule="evenodd" stroke-width="1px" id="path3296" d="m316.784119,73.301834c-1.719849,-0.601959 -8.838806,-1.237427 -9.722717,5.126526c-0.907959,6.537415 3.786865,5.960205 5.833618,4.949768c2.112,-1.042664 5.65686,-9.457581 3.889099,-10.076294z"/>
    <path fill="#ffffff" fill-opacity="0.392157" fill-rule="evenodd" stroke-width="1px" id="path3310" d="m303.34906,56.861622c-1.858459,-2.111908 -11.112732,-1.593048 -12.727905,0.176758c-1.822754,1.997375 8.736572,8.081539 10.783386,7.071072c2.112,-1.042664 3.889099,-5.038143 1.944519,-7.247829z"/>
   </g>
  </g>
 </g>
</svg>